<svg width="89" height="89" viewBox="0 0 89 89" fill="none" xmlns="http://www.w3.org/2000/svg">
<path d="M65.8693 54.5854C65.8693 58.484 66.9771 60.0388 69.8743 60.0388C76.3314 60.0388 80.443 51.8006 80.443 38.0998C80.443 17.1586 65.2018 7.13355 46.1734 7.13355C26.598 7.13355 8.79339 20.2775 8.79339 45.1173C8.79339 68.8432 24.3684 81.7643 48.2871 81.7643C56.4084 81.7643 61.8596 80.8732 70.1988 78.0885L71.988 85.5469C63.7555 88.2249 54.9575 89 48.1759 89C16.8034 89 0 71.7347 0 45.1126C0 18.2678 19.4734 0 46.2846 0C74.2084 0 89 16.7084 89 37.204C89 54.5807 83.5534 67.836 66.4209 67.836C58.6288 67.836 53.5159 64.7171 52.8484 57.8064C50.8459 65.4922 45.5059 67.836 38.27 67.836C28.5913 67.836 20.47 60.3683 20.47 45.3354C20.47 30.1865 27.5946 20.8298 40.3884 20.8298C47.1746 20.8298 51.4021 23.5031 53.2841 27.7359L56.515 21.8323H65.86V54.5854H65.8693ZM52.1902 39.882C52.1902 33.7602 47.6243 31.1936 43.8418 31.1936C39.7255 31.1936 35.1689 34.5307 35.1689 44.3376C35.1689 52.1348 38.6177 56.479 43.8418 56.479C47.513 56.479 52.1902 54.1398 52.1902 47.6792V39.882Z" fill="white"/>
</svg>
