<svg width="84" height="84" viewBox="0 0 84 84" fill="none" xmlns="http://www.w3.org/2000/svg">
<path d="M42 0C18.8038 0 0 18.8038 0 42C0 65.1963 18.8038 84 42 84C65.1963 84 84 65.1963 84 42C84 18.8038 65.1963 0 42 0ZM58.1525 47.3856C58.1525 47.3856 61.8669 51.0519 62.7812 52.7538C62.8075 52.7917 62.8235 52.8208 62.8294 52.8413C63.1998 53.4625 63.2917 53.954 63.105 54.3156C62.7988 54.9194 61.7488 55.2169 61.39 55.2431H54.8275C54.3725 55.2431 53.4188 55.125 52.2638 54.3288C51.3756 53.7075 50.5006 52.6881 49.6475 51.695C48.3744 50.2163 47.2719 48.9388 46.1606 48.9388C46.0195 48.9381 45.8791 48.9603 45.745 49.0044C44.905 49.2756 43.8288 50.4744 43.8288 53.6681C43.8288 54.6656 43.0413 55.2388 42.4856 55.2388H39.48C38.4562 55.2388 33.1231 54.88 28.3981 49.8969C22.6144 43.7938 17.4081 31.5525 17.3644 31.4387C17.0362 30.6469 17.7144 30.2225 18.4538 30.2225H25.0819C25.9656 30.2225 26.2544 30.7606 26.4556 31.2375C26.6919 31.7931 27.5581 34.0025 28.98 36.4875C31.2856 40.5387 32.6987 42.1838 33.8319 42.1838C34.0443 42.1813 34.253 42.1272 34.44 42.0262C35.9188 41.2038 35.6431 35.9319 35.5775 34.8381C35.5775 34.6325 35.5731 32.48 34.8162 31.4475C34.2738 30.6994 33.3506 30.415 32.7906 30.31C33.0173 29.9972 33.3159 29.7436 33.6612 29.5706C34.6763 29.0631 36.505 28.9888 38.3206 28.9888H39.3313C41.3 29.015 41.8075 29.1419 42.5206 29.3213C43.9644 29.6669 43.995 30.5988 43.8681 33.7881C43.8288 34.6937 43.7894 35.7175 43.7894 36.925L43.7763 37.765C43.7325 39.3881 43.68 41.23 44.8263 41.9869C44.9741 42.0844 45.148 42.1347 45.325 42.1313C45.7231 42.1313 46.9219 42.1313 50.1681 36.5619C51.1655 34.7673 52.0354 32.9048 52.7713 30.9881C52.8369 30.8744 53.0294 30.5244 53.2569 30.3888C53.4265 30.3081 53.6115 30.2649 53.7994 30.2619H61.5913C62.44 30.2619 63.0219 30.3888 63.1313 30.7169C63.3237 31.2375 63.0963 32.8256 59.5394 37.6425L57.9513 39.7381C54.7269 43.9644 54.7269 44.1788 58.1525 47.3856Z" fill="white"/>
</svg>
