<svg width="86" height="85" viewBox="0 0 86 85" fill="none" xmlns="http://www.w3.org/2000/svg">
<path d="M37.6347 45.726C36.8904 44.9498 35.9966 44.3324 35.0072 43.911L3.7096 30.5595C3.33592 30.4 3.01997 30.13 2.80416 29.7857C2.58835 29.4415 2.48302 29.0395 2.50229 28.6336C2.52156 28.2278 2.66453 27.8375 2.91199 27.5153C3.15945 27.193 3.49956 26.9542 3.88668 26.8308L80.1029 2.60331C80.4585 2.48359 80.8408 2.46762 81.2051 2.55725C81.5695 2.64689 81.9007 2.83843 82.1602 3.10947C82.4196 3.3805 82.5965 3.71982 82.6701 4.08772C82.7438 4.45561 82.7111 4.83687 82.576 5.18688L55.0425 80.2721C54.9023 80.6535 54.6488 80.9828 54.3161 81.216C53.9833 81.4491 53.5872 81.5749 53.1809 81.5764C52.7746 81.5779 52.3776 81.4551 52.0431 81.2245C51.7086 80.9939 51.4526 80.6664 51.3096 80.2861L39.3382 48.4273C38.9585 47.4211 38.3791 46.5022 37.6347 45.726ZM37.6347 45.726L82.147 3.126" stroke="white" stroke-width="5" stroke-linecap="round" stroke-linejoin="round"/>
</svg>
