<svg width="211" height="81" viewBox="0 0 211 81" fill="none" xmlns="http://www.w3.org/2000/svg">
<path d="M20.072 41.064C20.072 46.184 24.616 49.768 30.696 49.768C35.56 49.768 39.144 47.848 40.616 44.52H49.896C48.232 52.648 40.616 57.96 30.696 57.96C19.496 57.96 11.112 50.728 11.112 41.064C11.112 31.272 19.432 24.04 30.696 24.04C40.552 24.04 48.104 29.224 49.832 37.416H40.552C39.08 34.152 35.496 32.168 30.696 32.168C24.552 32.168 20.072 35.88 20.072 41.064ZM56.096 57L56.16 25H65.12V36.904H74.528C76.512 29.288 83.936 24.04 93.536 24.04C104.928 24.04 113.184 30.888 113.184 41.064C113.184 51.048 104.928 57.96 93.536 57.96C83.936 57.96 76.512 52.648 74.528 45.096H65.056V57H56.096ZM82.976 41.064C82.976 46.056 87.456 49.64 93.536 49.64C99.936 49.64 104.224 46.056 104.224 41.064C104.224 35.944 99.936 32.296 93.536 32.296C87.456 32.296 82.976 35.944 82.976 41.064ZM116.924 49.256H121.597C123.773 45.672 124.861 41.448 124.861 36.52V25H155.709V49.256H161.341V65.32H152.957V57H125.309V65.32H116.924V49.256ZM130.237 49.256H147.325V32.68H133.117V36.648C133.117 41.384 132.221 45.416 130.237 49.256ZM206.069 57H198.133L197.237 52.776C193.973 56.04 189.301 57.96 183.861 57.96C173.237 57.96 165.237 50.728 165.237 41.064C165.237 31.272 173.173 24.04 183.861 24.04C189.237 24.04 193.973 25.896 197.237 29.224L198.133 25H206.069V57ZM174.197 41.064C174.197 46.248 179.061 50.024 185.781 50.024C192.565 50.024 197.109 46.376 197.109 41.064C197.109 35.688 192.501 31.912 185.781 31.912C179.061 31.912 174.197 35.752 174.197 41.064Z" fill="white"/>
<path d="M11.072 41.064C11.072 46.184 15.616 49.768 21.696 49.768C26.56 49.768 30.144 47.848 31.616 44.52H40.896C39.232 52.648 31.616 57.96 21.696 57.96C10.496 57.96 2.112 50.728 2.112 41.064C2.112 31.272 10.432 24.04 21.696 24.04C31.552 24.04 39.104 29.224 40.832 37.416H31.552C30.08 34.152 26.496 32.168 21.696 32.168C15.552 32.168 11.072 35.88 11.072 41.064ZM47.096 57L47.16 25H56.12V36.904H65.528C67.512 29.288 74.936 24.04 84.536 24.04C95.928 24.04 104.184 30.888 104.184 41.064C104.184 51.048 95.928 57.96 84.536 57.96C74.936 57.96 67.512 52.648 65.528 45.096H56.056V57H47.096ZM73.976 41.064C73.976 46.056 78.456 49.64 84.536 49.64C90.936 49.64 95.224 46.056 95.224 41.064C95.224 35.944 90.936 32.296 84.536 32.296C78.456 32.296 73.976 35.944 73.976 41.064ZM107.924 49.256H112.597C114.773 45.672 115.861 41.448 115.861 36.52V25H146.709V49.256H152.341V65.32H143.957V57H116.309V65.32H107.924V49.256ZM121.237 49.256H138.325V32.68H124.117V36.648C124.117 41.384 123.221 45.416 121.237 49.256ZM197.069 57H189.133L188.237 52.776C184.973 56.04 180.301 57.96 174.861 57.96C164.237 57.96 156.237 50.728 156.237 41.064C156.237 31.272 164.173 24.04 174.861 24.04C180.237 24.04 184.973 25.896 188.237 29.224L189.133 25H197.069V57ZM165.197 41.064C165.197 46.248 170.061 50.024 176.781 50.024C183.565 50.024 188.109 46.376 188.109 41.064C188.109 35.688 183.501 31.912 176.781 31.912C170.061 31.912 165.197 35.752 165.197 41.064Z" fill="#0D0F72"/>
</svg>
