<svg width="212" height="124" viewBox="0 0 212 124" fill="none" xmlns="http://www.w3.org/2000/svg">
<path d="M120.436 7.45058e-07L121.834 50.5663L207.675 67.6228L124.478 72.8615L161.231 123.086L104.091 82.2652L23.9152 95.8012L88.8471 65.7818L8.03197 19.2377L99.8133 46.1908L120.436 7.45058e-07Z" fill="#0D0F72"/>
<path d="M25.0721 60.3084C25.0721 65.4284 29.6161 69.0124 35.6961 69.0124C40.5601 69.0124 44.1441 67.0924 45.6161 63.7644H54.8961C53.2321 71.8924 45.6161 77.2044 35.6961 77.2044C24.4961 77.2044 16.1121 69.9724 16.1121 60.3084C16.1121 50.5164 24.4321 43.2844 35.6961 43.2844C45.5521 43.2844 53.1041 48.4684 54.8321 56.6604H45.5521C44.0801 53.3964 40.4961 51.4124 35.6961 51.4124C29.5521 51.4124 25.0721 55.1244 25.0721 60.3084ZM61.0961 76.2444L61.1601 44.2444H70.1201V56.1484H79.5281C81.5121 48.5324 88.9361 43.2844 98.5361 43.2844C109.928 43.2844 118.184 50.1324 118.184 60.3084C118.184 70.2924 109.928 77.2044 98.5361 77.2044C88.9361 77.2044 81.5121 71.8924 79.5281 64.3404H70.0561V76.2444H61.0961ZM87.9761 60.3084C87.9761 65.3004 92.4561 68.8844 98.5361 68.8844C104.936 68.8844 109.224 65.3004 109.224 60.3084C109.224 55.1884 104.936 51.5404 98.5361 51.5404C92.4561 51.5404 87.9761 55.1884 87.9761 60.3084ZM121.925 68.5004H126.597C128.773 64.9164 129.861 60.6924 129.861 55.7644V44.2444H160.709V68.5004H166.341V84.5644H157.957V76.2444H130.309V84.5644H121.925V68.5004ZM135.237 68.5004H152.325V51.9244H138.117V55.8924C138.117 60.6284 137.221 64.6604 135.237 68.5004ZM211.069 76.2444H203.133L202.237 72.0204C198.973 75.2844 194.301 77.2044 188.861 77.2044C178.237 77.2044 170.237 69.9724 170.237 60.3084C170.237 50.5164 178.173 43.2844 188.861 43.2844C194.237 43.2844 198.973 45.1404 202.237 48.4684L203.133 44.2444H211.069V76.2444ZM179.197 60.3084C179.197 65.4924 184.061 69.2684 190.781 69.2684C197.565 69.2684 202.109 65.6204 202.109 60.3084C202.109 54.9324 197.501 51.1564 190.781 51.1564C184.061 51.1564 179.197 54.9964 179.197 60.3084Z" fill="black"/>
<path d="M16.0721 60.3084C16.0721 65.4284 20.6161 69.0124 26.6961 69.0124C31.5601 69.0124 35.1441 67.0924 36.6161 63.7644H45.8961C44.2321 71.8924 36.6161 77.2044 26.6961 77.2044C15.4961 77.2044 7.11206 69.9724 7.11206 60.3084C7.11206 50.5164 15.4321 43.2844 26.6961 43.2844C36.5521 43.2844 44.1041 48.4684 45.8321 56.6604H36.5521C35.0801 53.3964 31.4961 51.4124 26.6961 51.4124C20.5521 51.4124 16.0721 55.1244 16.0721 60.3084ZM52.0961 76.2444L52.1601 44.2444H61.1201V56.1484H70.5281C72.5121 48.5324 79.9361 43.2844 89.5361 43.2844C100.928 43.2844 109.184 50.1324 109.184 60.3084C109.184 70.2924 100.928 77.2044 89.5361 77.2044C79.9361 77.2044 72.5121 71.8924 70.5281 64.3404H61.0561V76.2444H52.0961ZM78.9761 60.3084C78.9761 65.3004 83.4561 68.8844 89.5361 68.8844C95.9361 68.8844 100.224 65.3004 100.224 60.3084C100.224 55.1884 95.9361 51.5404 89.5361 51.5404C83.4561 51.5404 78.9761 55.1884 78.9761 60.3084ZM112.925 68.5004H117.597C119.773 64.9164 120.861 60.6924 120.861 55.7644V44.2444H151.709V68.5004H157.341V84.5644H148.957V76.2444H121.309V84.5644H112.925V68.5004ZM126.237 68.5004H143.325V51.9244H129.117V55.8924C129.117 60.6284 128.221 64.6604 126.237 68.5004ZM202.069 76.2444H194.133L193.237 72.0204C189.973 75.2844 185.301 77.2044 179.861 77.2044C169.237 77.2044 161.237 69.9724 161.237 60.3084C161.237 50.5164 169.173 43.2844 179.861 43.2844C185.237 43.2844 189.973 45.1404 193.237 48.4684L194.133 44.2444H202.069V76.2444ZM170.197 60.3084C170.197 65.4924 175.061 69.2684 181.781 69.2684C188.565 69.2684 193.109 65.6204 193.109 60.3084C193.109 54.9324 188.501 51.1564 181.781 51.1564C175.061 51.1564 170.197 54.9964 170.197 60.3084Z" fill="#797BC9"/>
</svg>
