<svg width="256" height="134" viewBox="0 0 256 134" fill="none" xmlns="http://www.w3.org/2000/svg">
<path d="M55.808 83V59.256H41.28V51H79.104V59.256H64.768V83H55.808ZM105.91 95.608H96.4375L100.982 83H92.0855L80.4375 51H89.9095L98.4215 74.424H104.118L112.566 51H121.974L105.91 95.608ZM121.549 75.256H126.222C128.398 71.672 129.486 67.448 129.486 62.52V51H160.334V75.256H165.966V91.32H157.582V83H129.934V91.32H121.549V75.256ZM134.862 75.256H151.95V58.68H137.742V62.648C137.742 67.384 136.846 71.416 134.862 75.256ZM210.694 83H202.758L201.862 78.776C198.598 82.04 193.926 83.96 188.486 83.96C177.862 83.96 169.862 76.728 169.862 67.064C169.862 57.272 177.798 50.04 188.486 50.04C193.862 50.04 198.598 51.896 201.862 55.224L202.758 51H210.694V83ZM178.822 67.064C178.822 72.248 183.686 76.024 190.406 76.024C197.19 76.024 201.734 72.376 201.734 67.064C201.734 61.688 197.126 57.912 190.406 57.912C183.686 57.912 178.822 61.752 178.822 67.064Z" fill="#6F182E"/>
<path d="M59.808 83V59.256H45.28V51H83.104V59.256H68.768V83H59.808ZM109.91 95.608H100.438L104.982 83H96.0855L84.4375 51H93.9095L102.422 74.424H108.118L116.566 51H125.974L109.91 95.608ZM125.549 75.256H130.222C132.398 71.672 133.486 67.448 133.486 62.52V51H164.334V75.256H169.966V91.32H161.582V83H133.934V91.32H125.549V75.256ZM138.862 75.256H155.95V58.68H141.742V62.648C141.742 67.384 140.846 71.416 138.862 75.256ZM214.694 83H206.758L205.862 78.776C202.598 82.04 197.926 83.96 192.486 83.96C181.862 83.96 173.862 76.728 173.862 67.064C173.862 57.272 181.798 50.04 192.486 50.04C197.862 50.04 202.598 51.896 205.862 55.224L206.758 51H214.694V83ZM182.822 67.064C182.822 72.248 187.686 76.024 194.406 76.024C201.19 76.024 205.734 72.376 205.734 67.064C205.734 61.688 201.126 57.912 194.406 57.912C187.686 57.912 182.822 61.752 182.822 67.064Z" fill="white"/>
<path d="M52.808 83V59.256H38.28V51H76.104V59.256H61.768V83H52.808ZM102.91 95.608H93.4375L97.9815 83H89.0855L77.4375 51H86.9095L95.4215 74.424H101.118L109.566 51H118.974L102.91 95.608ZM118.549 75.256H123.222C125.398 71.672 126.486 67.448 126.486 62.52V51H157.334V75.256H162.966V91.32H154.582V83H126.934V91.32H118.549V75.256ZM131.862 75.256H148.95V58.68H134.742V62.648C134.742 67.384 133.846 71.416 131.862 75.256ZM207.694 83H199.758L198.862 78.776C195.598 82.04 190.926 83.96 185.486 83.96C174.862 83.96 166.862 76.728 166.862 67.064C166.862 57.272 174.798 50.04 185.486 50.04C190.862 50.04 195.598 51.896 198.862 55.224L199.758 51H207.694V83ZM175.822 67.064C175.822 72.248 180.686 76.024 187.406 76.024C194.19 76.024 198.734 72.376 198.734 67.064C198.734 61.688 194.126 57.912 187.406 57.912C180.686 57.912 175.822 61.752 175.822 67.064Z" fill="#6F182E"/>
</svg>
