<svg width="256" height="134" viewBox="0 0 256 134" fill="none" xmlns="http://www.w3.org/2000/svg">
<g clip-path="url(#clip0_75_18)">
<path d="M140.436 6.75562L141.834 57.3219L227.675 74.3784L144.478 79.6171L181.231 129.841L124.091 89.0208L43.9152 102.557L108.847 72.5374L28.032 25.9933L119.813 52.9464L140.436 6.75562Z" fill="#6F182E"/>
<path d="M62.8081 83V59.256H48.2801V51H86.1041V59.256H71.7681V83H62.8081ZM112.91 95.608H103.438L107.982 83H99.0856L87.4376 51H96.9096L105.422 74.424H111.118L119.566 51H128.974L112.91 95.608ZM128.55 75.256H133.222C135.398 71.672 136.486 67.448 136.486 62.52V51H167.334V75.256H172.966V91.32H164.582V83H136.934V91.32H128.55V75.256ZM141.862 75.256H158.95V58.68H144.742V62.648C144.742 67.384 143.846 71.416 141.862 75.256ZM217.694 83H209.758L208.862 78.776C205.598 82.04 200.926 83.96 195.486 83.96C184.862 83.96 176.862 76.728 176.862 67.064C176.862 57.272 184.798 50.04 195.486 50.04C200.862 50.04 205.598 51.896 208.862 55.224L209.758 51H217.694V83ZM185.822 67.064C185.822 72.248 190.686 76.024 197.406 76.024C204.19 76.024 208.734 72.376 208.734 67.064C208.734 61.688 204.126 57.912 197.406 57.912C190.686 57.912 185.822 61.752 185.822 67.064Z" fill="black"/>
<path d="M55.8081 83V59.256H41.2801V51H79.1041V59.256H64.7681V83H55.8081ZM105.91 95.608H96.4376L100.982 83H92.0856L80.4376 51H89.9096L98.4216 74.424H104.118L112.566 51H121.974L105.91 95.608ZM121.55 75.256H126.222C128.398 71.672 129.486 67.448 129.486 62.52V51H160.334V75.256H165.966V91.32H157.582V83H129.934V91.32H121.55V75.256ZM134.862 75.256H151.95V58.68H137.742V62.648C137.742 67.384 136.846 71.416 134.862 75.256ZM210.694 83H202.758L201.862 78.776C198.598 82.04 193.926 83.96 188.486 83.96C177.862 83.96 169.862 76.728 169.862 67.064C169.862 57.272 177.798 50.04 188.486 50.04C193.862 50.04 198.598 51.896 201.862 55.224L202.758 51H210.694V83ZM178.822 67.064C178.822 72.248 183.686 76.024 190.406 76.024C197.19 76.024 201.734 72.376 201.734 67.064C201.734 61.688 197.126 57.912 190.406 57.912C183.686 57.912 178.822 61.752 178.822 67.064Z" fill="#CA2A52"/>
</g>
<defs>
<clipPath id="clip0_75_18">
<rect width="256" height="134" fill="white"/>
</clipPath>
</defs>
</svg>
